{"title":"David Attenborough's The Hunt - S01E08 - On The Hunt","uid":15613082,"size":1258270963,"categoryP":"video","categoryS":"tv_shows","magnet":"?xt=urn:btih:2cc9af66018d6ab171b65aad3fad83730f81de44&amp;dn=David+Attenborough%27s+The+Hunt+-+S01E08+-+On+The+Hunt&amp;tr=udp%3A%2F%2Ftracker.leechers-paradise.org%3A6969&amp;tr=udp%3A%2F%2Fzer0day.ch%3A1337&amp;tr=udp%3A%2F%2Fopen.demonii.com%3A1337&amp;tr=udp%3A%2F%2Ftracker.coppersurfer.tk%3A6969&amp;tr=udp%3A%2F%2Fexodus.desync.com%3A6969","seeders":7,"leechers":2,"uploader":"Bullrout","files":1,"time":1471802792,"description":"David Attenborough's The Hunt - S01E08 - On The Hunt\r\n\r\nWhat did it take to make The Hunt? This Making Of follows the crews as they capture some of the most memorable scenes from the series.\r\n\r\nComplete name                            : David Attenborough's The Hunt - S01E08 - On The Hunt.mkv\r\nFormat                                   : Matroska\r\nFormat version                           : Version 4 / Version 2\r\nFile size                                : 1.17 GiB\r\nDuration                                 : 50mn 11s\r\nOverall bit rate mode                    : Variable\r\nOverall bit rate                         : 3 342 Kbps\r\nEncoded date                             : UTC 2016-08-20 13:07:21\r\nWriting application                      : mkvmerge v9.3.1 ('Mask Machine') 64bit\r\nWriting library                          : libebml v1.3.4 + libmatroska v1.4.5\r\n\r\nVideo\r\nID                                       : 2\r\nFormat                                   : AVC\r\nFormat/Info                              : Advanced Video Codec\r\nFormat profile                           :   \r\nFormat settings, CABAC                   : Yes\r\nFormat settings, ReFrames                : 3 frames\r\nCodec ID                                 : V_MPEG4/ISO/AVC\r\nDuration                                 : 50mn 11s\r\nBit rate mode                            : Variable\r\nBit rate                                 : 2 956 Kbps\r\nMaximum bit rate                         : 3 000 Kbps\r\nWidth                                    : 1 280 pixels\r\nHeight                                   : 720 pixels\r\nDisplay aspect ratio                     : 16:9\r\nFrame rate mode                          : Constant\r\nFrame rate                               : 25.000 fps\r\nStandard                                 : PAL\r\nColor space                              : YUV\r\nChroma subsampling                       : 4:2:0\r\nBit depth                                : 8 bits\r\nScan type                                : Progressive\r\nBits/(Pixel*Frame)                       : 0.128\r\nStream size                              : 1.04 GiB (88%)\r\nWriting library                          : x264 core 112\r\nDefault                                  : Yes\r\nForced                                   : No\r\nColor range                              : Limited\r\nColor primaries                          : BT.709\r\nTransfer characteristics                 : BT.709\r\nMatrix coefficients                      : BT.709\r\n\r\nAudio\r\nID                                       : 1\r\nFormat                                   : AC-3\r\nFormat/Info                              : Audio Coding 3\r\nMode extension                           : CM (complete main)\r\nFormat settings, Endianness              : Big\r\nCodec ID                                 : A_AC3\r\nDuration                                 : 50mn 11s\r\nBit rate mode                            : Constant\r\nBit rate                                 : 384 Kbps\r\nChannel(s)                               : 6 channels\r\nChannel positions                        : Front: L C R, Side: L R, LFE\r\nSampling rate                            : 48.0 KHz\r\nFrame rate                               : 31.250 fps (1536 spf)\r\nCompression mode                         : Lossy\r\nStream size                              : 138 MiB (11%)\r\nDefault                                  : Yes\r\nForced                                   : No","torrent":{"xt":"urn:btih:2cc9af66018d6ab171b65aad3fad83730f81de44","amp;dn":"David+Attenborough%27s+The+Hunt+-+S01E08+-+On+The+Hunt","amp;tr":["udp%3A%2F%2Ftracker.leechers-paradise.org%3A6969","udp%3A%2F%2Fzer0day.ch%3A1337","udp%3A%2F%2Fopen.demonii.com%3A1337","udp%3A%2F%2Ftracker.coppersurfer.tk%3A6969","udp%3A%2F%2Fexodus.desync.com%3A6969"],"infoHash":"2cc9af66018d6ab171b65aad3fad83730f81de44","infoHashBuffer":{"type":"Buffer","data":[44,201,175,102,1,141,106,177,113,182,90,173,63,173,131,115,15,129,222,68]},"announce":[],"urlList":[]}}